<svg xmlns="http://www.w3.org/2000/svg" viewBox="0 0 1014 517.02"><defs><style>.cls-1{fill:#0000fd;}.cls-2{fill:#8e8e8e;}.cls-3{fill:#025193;}.cls-4{fill:#025194;}</style></defs><g id="Layer_2" data-name="Layer 2"><g id="Layer_1-2" data-name="Layer 1"><path class="cls-1" d="M910.09,246.09h-52c-3.38,0-6.77-.13-10.15,0a3.86,3.86,0,0,1-3.83-2.09,350.19,350.19,0,0,0-46.39-56.3c-26.92-26.16-57.52-46.44-93.46-58.1a201.51,201.51,0,0,0-81.07-9.47c-68.89,6.26-126.09,36.05-172.39,87.09A143.51,143.51,0,0,0,426,244.8a2.27,2.27,0,0,1-2.4,1.68q-32.88-.49-65.76-.88a3.4,3.4,0,0,1-.61-.19,155,155,0,0,1,10.85-25.27c2.13-3.94,4.44-7.78,6.87-11.54,1-1.56,1-2.4-.42-3.72-15.82-15-31.54-30.2-47.37-45.23-1.57-1.49-1.41-2.3-.17-3.82q21.57-26.45,43-53c1.16-1.44,1.94-1.54,3.5-.69,19.94,10.88,39.93,21.67,59.88,32.54,1.41.76,2.24.74,3.44-.42,20.38-19.54,43.06-35.66,69.39-46.27,1.55-.63,1.47-1.57,1.3-2.77q-2.1-14.43-4.19-28.86Q500.69,38.17,498,20c-.22-1.45,0-2.17,1.69-2.61Q532,8.88,564.25.15C566-.33,566.42.38,567,1.67q12.4,29.11,24.84,58.2c.67,1.57,1.23,2.32,3.26,2.12a379,379,0,0,1,77.53-.08c7.57.79,15.11,1.85,22.61,3.1,2.1.35,2.59-.41,3.24-2,8.29-19.77,16.66-39.5,24.88-59.3.91-2.2,1.76-2.32,3.8-1.57q31.25,11.48,62.56,22.73c1.89.68,2.59,1.43,2.3,3.57-1.89,13.64-3.63,27.31-5.41,41-1.28,9.89-2.48,19.8-3.86,29.67a2.63,2.63,0,0,0,1.71,3.28,224.45,224.45,0,0,1,46,31.27,188.53,188.53,0,0,1,15.16,14.62c1.46,1.59,2.39,1.77,4.26.53,17.66-11.75,35.42-23.35,53.1-35.07,1.56-1,2.22-.85,3.31.61q21,28,42.09,56c1,1.37.94,2.1-.23,3.31-16,16.74-32,33.57-48,50.29-1.32,1.38-1.31,2.3-.43,3.81C903.13,233.68,906.49,239.71,910.09,246.09Z"/><path class="cls-1" d="M14.66,391.66c.91,0,1.82,0,2.73,0,9.65,0,19.3.09,28.94,0a4.14,4.14,0,0,1,4.31,2.48c13.72,24.81,33.42,43.35,60.06,53.13,45.85,16.83,88.19,10.23,125.86-21.7,10.2-8.65,17.05-19.78,22.62-31.76a3,3,0,0,1,3.17-2.11c9.39.05,18.78,0,28.17-.12,1.57,0,2.28.12,1.84,2.05-.94,4.12-1.45,8.33-2.38,12.44a3.86,3.86,0,0,0,1.28,4.2c7.19,6.8,14.27,13.73,21.45,20.54,1.17,1.1,1.21,1.76.17,3q-10.77,12.66-21.38,25.45c-1,1.22-1.59,1.21-2.8.28-7.82-6.06-15.73-12-23.55-18.05-1.37-1.06-2.07-1.27-3.4.22a103.07,103.07,0,0,1-31.13,23.61c-1.74.87-2,1.86-1.78,3.53,1.49,11.23,2.92,22.46,4.42,33.69.21,1.52.07,2.4-1.68,3Q217.24,510,203,514.87c-1.6.55-2.13.16-2.79-1.26-4.32-9.34-8.77-18.63-13.1-28-.69-1.47-1.41-1.82-3.08-1.61a210.11,210.11,0,0,1-49.62.55c-1.78-.21-2.27.32-2.79,1.83-3.25,9.67-6.68,19.29-9.89,29-.58,1.77-1.22,1.89-2.81,1.39q-15.22-4.72-30.52-9.24c-1.52-.45-1.9-1.15-1.83-2.64.52-10.9.9-21.81,1.46-32.71.11-2-.31-2.9-2.4-3.48-12.86-3.54-23.27-11-32.25-20.63-1.26-1.35-2-1.43-3.48-.39-8.37,5.87-16.88,11.55-25.23,17.45-1.67,1.18-2.39.86-3.52-.59Q11,451.67.77,438.92c-1.07-1.33-1.07-2,.27-3.21,7.57-6.77,15-13.69,22.55-20.47,1.43-1.27,1.76-2.18.78-4-3.07-5.63-5.93-11.38-8.82-17.1A4,4,0,0,1,14.66,391.66Z"/><path class="cls-2" d="M920.49,288.8c5.48-6.16,11.48-10.37,19.21-11.4,10.08-1.35,18.81,1,24.77,9.94,1.14,1.71,1.71,1.17,2.73.06,4.84-5.32,10.57-9.19,17.87-10.09,12.61-1.56,24.74,3.48,27.95,17a29.16,29.16,0,0,1,.83,6.5c.09,17.35,0,34.7.15,52,0,2.1-.69,2.52-2.6,2.47-5.16-.11-10.33-.12-15.49,0-1.89,0-2.42-.48-2.41-2.39.09-13.54,0-27.08.08-40.62,0-3.31-.27-6.59-.55-9.87-.84-9.47-8.74-10.93-14.65-8.72-6.91,2.6-9.13,8.33-9.67,15-1.17,14.44-.26,28.92-.53,43.38-.07,3.7.38,3.15-3.3,3.17-4.74,0-9.48-.1-14.21.06-2.25.08-3-.45-3-2.88.14-11.76.1-23.52.05-35.28q0-6.85-.38-13.7c-.48-8.8-6.38-12.68-14.85-9.82-5.86,2-8.65,6.41-9.5,12.28a141.06,141.06,0,0,0-.91,20.24c0,8.88-.06,17.77,0,26.65,0,2.07-.63,2.55-2.58,2.5-5.24-.12-10.49-.1-15.74,0-1.59,0-2.19-.32-2.18-2.06q.07-36.3,0-72.61c0-1.47.29-2.1,1.93-2.07q7.5.15,15,0c1.61,0,2,.53,2,2C920.42,283.16,920.49,285.68,920.49,288.8Z"/><path class="cls-3" d="M615.75,289.64c4.91-5.58,10.21-9.37,16.92-10.67,10-1.94,19.18-.34,26.49,7.33,4.22,4.43,5.7,10.16,5.78,16.06.24,17.34.17,34.69.29,52,0,1.63-.43,2.17-2.11,2.14-5.41-.1-10.83-.12-16.25,0-1.8,0-2.22-.52-2.21-2.27.08-13.62,0-27.24,0-40.86a60.66,60.66,0,0,0-.86-11.1c-.84-4.59-3.91-7.05-8.18-7.88-10.41-2-18.39,4.27-19.46,14.92a126.77,126.77,0,0,0-.45,12.92c0,10.66,0,21.32,0,32,0,1.71-.34,2.34-2.19,2.29-5.5-.13-11-.1-16.5,0-1.57,0-2-.46-2-2q.06-50.77,0-101.54c0-1.63.41-2.2,2.12-2.17,5.5.11,11,.11,16.5,0,1.77,0,2.07.61,2.06,2.19-.06,11.17,0,22.34,0,33.51Z"/><path class="cls-3" d="M395.35,289.66c4.95-5.62,10.32-9.5,17.11-10.75,9.79-1.81,18.85-.3,26.11,7.15,4.28,4.38,5.74,10,6,15.93.78,17.42.2,34.85.42,52.28,0,1.77-.5,2.31-2.28,2.27-5.41-.11-10.83-.12-16.24,0-1.83,0-2.22-.54-2.21-2.27.07-14,0-28.09.07-42.13a70.6,70.6,0,0,0-.6-8.85c-.75-6.06-5.89-9.7-12.69-9.16-9.24.74-14.47,6.19-15.19,15.75-1.09,14.36-.23,28.74-.5,43.11-.06,3.5,0,3.51-3.43,3.5-4.91,0-9.82-.09-14.72.05-1.94.06-2.38-.54-2.37-2.41.06-17.26,0-34.52,0-51.78,0-16.33,0-32.66-.05-49,0-1.94.44-2.62,2.5-2.56q7.86.22,15.74,0c2-.06,2.35.61,2.33,2.44-.08,11.08,0,22.16,0,33.25Z"/><path class="cls-3" d="M286.73,345.69c-5.63,7.07-12.24,11.3-20.46,12.37-9.9,1.28-18.85-.7-25.32-9.14a23.71,23.71,0,0,1-4.48-13.48c-.92-17.92-.22-35.86-.45-53.79,0-1.72.75-1.89,2.14-1.88,5.42.06,10.83.12,16.24,0,2-.05,2.37.55,2.36,2.42q-.13,19.8,0,39.59c0,3.55.19,7.1.56,10.63.72,7,6.4,11.1,13.9,10.16,7.66-1,12.88-6.57,13.48-14.3,1.17-15.12.38-30.27.53-45.4,0-2.35.42-3.23,3-3.12,5.15.23,10.32.13,15.48,0,1.67,0,2.35.26,2.34,2.16q-.09,36.29,0,72.58c0,1.47-.24,2.08-1.91,2-5.08-.13-10.16-.14-15.23,0-1.9,0-2.24-.67-2.17-2.33C286.82,351.62,286.73,349,286.73,345.69Z"/><path class="cls-3" d="M524.42,290.72c5.19-6.17,11.05-10.46,18.59-11.81,9.86-1.77,19-.38,26.43,7,3.82,3.82,5.32,8.82,5.63,14,1.08,18.25.25,36.54.52,54.81,0,1.32-.39,1.75-1.72,1.74-5.84-.06-11.68-.11-17.52,0-1.89,0-1.5-1.07-1.5-2.09q0-21.7,0-43.42a39.68,39.68,0,0,0-.7-7.56c-1.4-7.27-8-10.91-15.72-8.88s-11.57,7.53-12.08,16.32c-.83,14.38-.28,28.76-.39,43.14,0,2-.56,2.54-2.53,2.49-5.33-.13-10.66-.11-16,0-1.59,0-2-.46-2-2q.07-36.43,0-72.86c0-1.4.34-1.93,1.83-1.9,5.08.08,10.16.1,15.24,0,1.66,0,2,.6,1.92,2.07C524.35,284.61,524.42,287.4,524.42,290.72Z"/><path class="cls-2" d="M764.49,277.08c7,0,13.83.92,20,4.6,7.27,4.36,11.31,11.12,13.77,19,.32,1-.14,1.13-.92,1.27l-17.15,3c-1.13.2-2,0-2.27-1.31-1.66-8.1-8-10.59-14.31-10.36-6.76.25-11.88,4.1-13.79,11.25a43,43,0,0,0,.91,26.39c3.39,9.22,15.4,12.5,23.16,6.47,2.87-2.23,4-5.59,4.8-9,.45-2,.89-2.78,3.27-2.25,5.17,1.15,10.43,1.9,15.68,2.65,1.6.22,1.86.69,1.52,2.21-3.36,14.86-14.11,24.23-29.25,25.86-8.72.94-17.09.09-24.77-4.2-9.51-5.31-14.93-13.75-16.8-24.34-2-11.16-1.84-22.28,3.38-32.63s14-16.56,25.76-18.21A53.88,53.88,0,0,1,764.49,277.08Z"/><path class="cls-3" d="M347.61,252.68c0,8.52.05,16.62,0,24.72,0,1.83.34,2.56,2.33,2.45,3.2-.18,6.43,0,9.64-.07,1.17,0,1.88.11,1.85,1.6-.1,4.48-.08,9,0,13.45,0,1.24-.4,1.59-1.59,1.56-3.47-.06-6.94.05-10.4-.05-1.48,0-1.81.47-1.81,1.86.06,12.1,0,24.19.08,36.29,0,5.79,2.58,7.7,8.3,6.43,1.72-.38,3.4-.95,5.36-1.51.53,4.95,1,9.8,1.56,14.64a1.56,1.56,0,0,1-1.23,1.87c-7.92,2.74-15.92,3.7-24,.87-5.83-2-8.83-6.39-9.83-12.35-.77-4.61-.65-9.26-.69-13.9q-.14-15.85,0-31.72c0-2-.55-2.62-2.53-2.49-2.17.14-5.09.76-6.37-.35-1.49-1.3-.4-4.28-.48-6.54-.09-2.44.12-4.91-.07-7.35-.16-2,.61-2.49,2.43-2.32,1.51.15,3-.08,4.56.06,1.85.17,2.54-.38,2.46-2.36-.16-3.63-.06-7.27,0-10.91,0-.9-.1-1.71,1-2.33C334.47,260.52,340.82,256.71,347.61,252.68Z"/><path class="cls-3" d="M113.93,318.21c0-12,0-24-.05-36,0-1.86.39-2.48,2.35-2.43,5.33.14,10.66.1,16,0,1.59,0,2.18.31,2.18,2.06q-.09,36.41,0,72.82c0,1.41-.37,1.89-1.83,1.87-5.58-.07-11.16-.09-16.74,0-1.67,0-1.91-.59-1.9-2.05C114,342.39,113.93,330.3,113.93,318.21Z"/><path class="cls-3" d="M485.36,318.21c0,12,0,24,0,36,0,1.73-.38,2.35-2.22,2.31-5.32-.13-10.66-.15-16,0-2,.05-2.32-.6-2.32-2.43q.09-36,0-72.06c0-2,.66-2.33,2.44-2.3,5.24.11,10.49.14,15.73,0,2-.06,2.37.59,2.36,2.43C485.32,294.19,485.36,306.2,485.36,318.21Z"/><path class="cls-2" d="M700.73,355.29c-2.79,0-5.57-.07-8.35,0-1.48.05-1.89-.51-1.87-1.91.06-5.57.07-11.14,0-16.7,0-1.49.57-1.86,2-1.85,5.65.06,11.31.07,17,0,1.5,0,1.83.57,1.82,1.93-.06,5.57-.07,11.14,0,16.71,0,1.49-.53,1.86-1.91,1.82C706.47,355.23,703.6,355.29,700.73,355.29Z"/><path class="cls-4" d="M124,270c-2.78,0-5.57-.07-8.35,0-1.36.05-1.71-.42-1.7-1.72q.09-7.85,0-15.7c0-1.29.36-1.78,1.71-1.76,5.65.06,11.31,0,17,0,1.24,0,1.82.24,1.8,1.66-.07,5.31-.06,10.63,0,15.95,0,1.22-.34,1.59-1.56,1.56C129.86,269.92,126.9,270,124,270Z"/><path class="cls-3" d="M474.88,270c-2.7,0-5.4-.07-8.1,0-1.34,0-1.92-.2-1.89-1.75.1-5.23.07-10.47,0-15.7,0-1.33.42-1.73,1.73-1.72,5.66.06,11.32.07,17,0,1.55,0,1.8.62,1.79,2-.06,5.15-.08,10.3,0,15.45,0,1.51-.52,1.83-1.9,1.79C480.63,269.92,477.75,270,474.88,270Z"/><path class="cls-3" d="M94.28,281.92c0-1.63-.37-2.2-2.09-2.16-5.08.11-10.16.1-15.23,0-1.58,0-2.07.43-2,2,.12,2.57,0,5.16,0,8.32-1-1.19-1.64-1.95-2.29-2.66-13.13-14.46-36.41-11.36-47,5.13-3.68,5.73-5.26,12.14-5.84,18.84-1.08,12.64.49,24.59,8.94,34.79C36.06,355,45.51,357.73,56.42,356c7.19-1.13,12.58-5.43,17.48-11.57-.1,6.37.29,12-.58,17.65-.58,3.79-2.47,6.74-6.4,8a28.77,28.77,0,0,1-15.47.77c-2.7-.59-4.92-2.17-5.37-5.08-.29-1.9-1.25-2.25-2.85-2.42-6.46-.7-12.92-1.4-19.35-2.31-1.65-.24-1.77.22-1.81,1.59a22.05,22.05,0,0,0,15.74,22c11.19,3.49,22.65,3.6,34.05,1.33,9.7-1.94,17-7.17,20.14-17a48.64,48.64,0,0,0,2.18-14.71c.07-15.74,0-31.48.06-47.23C94.25,298.68,94.2,290.3,94.28,281.92ZM71.94,329.41c-4.1,10-16.19,13.62-24.44,7.1-4-3.2-5.73-7.79-6.28-12.79-.76-6.91-1.08-13.84,1.86-20.39,2.65-5.92,7.26-9.14,13.85-9.18s11.46,3,14.44,8.88c2.23,4.38,2.7,9.15,2.56,14.14A28.65,28.65,0,0,1,71.94,329.41Z"/><path class="cls-3" d="M220.7,355.18c-4.32-8.65-4.06-18-4.07-27.26,0-9.46.82-18.91,0-28.4-.85-9.89-4.15-15.66-15.21-19.28-7.7-2.52-15.77-2.23-23.83-1.68-12.64.86-22.12,8.14-25.76,20.22-.41,1.38-.05,1.86,1.18,2.08,5.06.88,10.13,1.68,15.16,2.68a1.88,1.88,0,0,0,2.56-1.46c1.87-5.33,5.75-7.88,11.33-7.9,1.68,0,3.37.07,5.06.17,6.66.39,9.47,3.44,9.69,10.11a2.59,2.59,0,0,1-2.21,3c-3.33.88-6.65,1.83-10,2.58-7,1.56-14,2.63-20.79,5.09-15.42,5.62-17.41,22.48-11.14,32.46,6,9.48,16.06,11.77,26.88,10.47,7.21-.86,13.15-4.46,18.7-9.6l2.09,6.55c.27.85.64,1.48,1.73,1.47,5.92,0,11.85,0,17.77,0C220.87,356.5,221.21,356.21,220.7,355.18Zm-24.59-22.26c-1.34,6.6-8.57,11.18-16.53,10.7a9.66,9.66,0,0,1-8.7-5.89c-2.28-4.9-.45-9.71,4.49-11.89a42,42,0,0,1,7.7-2.26c4.48-1,9-2.11,13.61-3.21A47.49,47.49,0,0,1,196.11,332.92Z"/><path class="cls-2" d="M868,281.92c-10.56-6-21.9-6.25-33.34-2.82A34.25,34.25,0,0,0,814.48,295c-5.75,9.76-7,20.3-5,31.29,1.74,9.78,6.17,18,14.48,23.74A41.8,41.8,0,0,0,844,357c11.49,1.13,21.79-1.66,30.48-9.41,9.12-8.13,13.28-18.48,13.16-25.48C887.56,301.66,881.51,289.57,868,281.92ZM861,334.8c-7.72,8.58-22.07,7.24-27.64-2.93-5.1-9.31-5-19.19-.39-28.7,3.21-6.66,9.13-9.67,16.4-9.21,7.43.48,12.5,4.65,15.29,11.51a33.06,33.06,0,0,1,2,11.5C866.37,323.55,865.46,329.79,861,334.8Z"/></g></g></svg>